<svg width="32" height="32" viewBox="0 0 32 32" fill="none" xmlns="http://www.w3.org/2000/svg">
<g clip-path="url(#clip0_413_12)">
<g filter="url(#filter0_d_413_12)">
<path d="M22.7673 31C21.3486 31 20.3353 30.7213 19.7273 30.164C19.1193 29.6067 18.8153 28.8087 18.8153 27.77C18.8153 27.2127 18.8659 26.2247 18.9673 24.806C19.0686 23.3873 19.1826 21.7913 19.3093 20.018H12.5453L11.7853 30.43C11.7599 30.6327 11.7093 30.7847 11.6333 30.886C11.5573 30.962 11.4053 31 11.1773 31H9.08727C7.6686 31 6.65527 30.7213 6.04727 30.164C5.43927 29.6067 5.13527 28.8087 5.13527 27.77C5.13527 27.2633 5.17327 26.402 5.24927 25.186C5.32527 23.9447 5.4266 22.5387 5.55327 20.968C5.67993 19.3973 5.8066 17.738 5.93327 15.99C6.05993 14.242 6.1866 12.5953 6.31327 11.05C6.43993 9.50467 6.54127 8.14933 6.61727 6.984C6.69327 5.81867 6.73127 5.02067 6.73127 4.59C6.73127 4.21 6.93393 4.02 7.33927 4.02H9.42927C10.9746 4.02 12.0133 4.34933 12.5453 5.008C13.0773 5.66667 13.3433 6.642 13.3433 7.934C13.3433 8.13667 13.3053 8.85867 13.2293 10.1C13.1533 11.316 13.0519 12.7853 12.9253 14.508H19.7273C19.8033 13.3933 19.8793 12.304 19.9553 11.24C20.0566 10.176 20.1326 9.20067 20.1833 8.314C20.2593 7.42733 20.3099 6.66733 20.3353 6.034C20.3859 5.37533 20.4113 4.894 20.4113 4.59C20.4113 4.21 20.6139 4.02 21.0193 4.02H23.1093C24.6546 4.02 25.6933 4.34933 26.2253 5.008C26.7573 5.66667 27.0233 6.642 27.0233 7.934C27.0233 8.06066 26.9979 8.466 26.9473 9.15C26.9219 9.834 26.8713 10.6953 26.7953 11.734C26.7193 12.7727 26.6306 13.938 26.5293 15.23C26.4533 16.4967 26.3646 17.8013 26.2633 19.144C26.1873 20.4867 26.0986 21.804 25.9973 23.096C25.9213 24.3627 25.8453 25.5153 25.7693 26.554C25.6933 27.5927 25.6299 28.4667 25.5793 29.176C25.5286 29.86 25.4906 30.278 25.4653 30.43C25.4399 30.6327 25.3893 30.7847 25.3133 30.886C25.2373 30.962 25.0853 31 24.8573 31H22.7673Z" fill="#42CAFD"/>
</g>
</g>
<defs>
<filter id="filter0_d_413_12" x="4.63525" y="3.52002" width="23.8882" height="28.98" filterUnits="userSpaceOnUse" color-interpolation-filters="sRGB">
<feFlood flood-opacity="0" result="BackgroundImageFix"/>
<feColorMatrix in="SourceAlpha" type="matrix" values="0 0 0 0 0 0 0 0 0 0 0 0 0 0 0 0 0 0 127 0" result="hardAlpha"/>
<feOffset dx="0.5" dy="0.5"/>
<feGaussianBlur stdDeviation="0.5"/>
<feComposite in2="hardAlpha" operator="out"/>
<feColorMatrix type="matrix" values="0 0 0 0 1 0 0 0 0 1 0 0 0 0 0 0 0 0 0.4 0"/>
<feBlend mode="normal" in2="BackgroundImageFix" result="effect1_dropShadow_413_12"/>
<feBlend mode="normal" in="SourceGraphic" in2="effect1_dropShadow_413_12" result="shape"/>
</filter>
<clipPath id="clip0_413_12">
<rect width="32" height="32" fill="white"/>
</clipPath>
</defs>
</svg>
