<svg width="32" height="32" viewBox="0 0 32 32" fill="none" xmlns="http://www.w3.org/2000/svg">
<path fill-rule="evenodd" clip-rule="evenodd" d="M25.3357 17.3872V7.95298C24.4053 6.02121 22.1458 2.66982 20.5508 4.71839V19.6783C21.5256 19.6334 23.847 19.1122 25.3356 17.3872H25.3357ZM27.3293 17.3872H27.3294V7.95298C26.2661 2.42723 22.1458 1.86118 20.5508 2.02291C19.4875 2.13072 18.5571 3.6402 18.5571 4.71839V19.6783L18.4241 19.6783C16.9355 19.7862 14.6139 18.1958 13.6392 17.3872V20.0827C14.0645 20.7296 17.0064 21.5203 18.4241 21.8347H20.5507C21.5076 21.8347 24.1391 20.7566 25.3354 19.948V27.6299C23.5278 29.7863 21.3923 26.1923 20.5505 24.1258V22.3737H18.4239V24.1258C19.5935 29.6246 23.5189 30.55 25.3354 30.3254C26.7177 30.2176 27.2405 28.4835 27.3291 27.6299V19.9479H27.3293V17.3872Z" fill="#00FF00"/>
<path fill-rule="evenodd" clip-rule="evenodd" d="M6.99341 14.9688V24.403C7.9238 26.3347 10.1833 29.6861 11.7783 27.6376V12.6776C10.8035 12.7226 8.48209 13.2437 6.99353 14.9688H6.99341ZM4.99984 14.9688H4.99971V24.403C6.06302 29.9287 10.1833 30.4948 11.7783 30.3331C12.8416 30.2252 13.772 28.7158 13.772 27.6376V12.6776H13.905C15.3936 12.5698 17.7152 14.1601 18.6899 14.9688V12.2733C18.2645 11.6264 15.3227 10.8357 13.905 10.5212H11.7784C10.8215 10.5212 8.19003 11.5993 6.99372 12.4079V4.72602C8.80134 2.56963 10.9368 6.16361 11.7786 8.23015V9.98222H13.9052V8.23015C12.7356 2.73136 8.8102 1.80591 6.99372 2.03053C5.61143 2.13835 5.08864 3.87245 5.00003 4.72602V12.4081H4.99984V14.9688Z" fill="#00FF00"/>
</svg>
